<svg width="40" height="40" viewBox="0 0 40 40" fill="none" xmlns="http://www.w3.org/2000/svg">
<circle cx="20" cy="20" r="19" stroke="#EC0000" stroke-width="2"/>
<path fill-rule="evenodd" clip-rule="evenodd" d="M30.4346 14.2757C30.0421 11.5935 27.5561 9.5 24.8084 9.5H15.257C14.6682 9.5 14.0794 9.56542 13.5561 9.76168C11.1355 10.5467 9.5 12.771 9.5 15.3224V20.0327V24.6776C9.5 25.0047 9.5 25.3972 9.56542 25.7243C9.95794 28.4065 12.4439 30.5 15.1916 30.5H24.6776C25.0047 30.5 25.3318 30.5 25.6589 30.4346C28.472 29.9766 30.5 27.5561 30.5 24.743V15.3224C30.5 14.9953 30.5 14.6028 30.4346 14.2757ZM20.0328 25.6589C16.8926 25.6589 14.4066 23.1075 14.4066 20.0328C14.4066 16.958 16.958 14.4066 20.0328 14.4066C23.1075 14.4066 25.6589 16.958 25.6589 20.0328C25.6589 23.1075 23.1075 25.6589 20.0328 25.6589ZM24.7431 14.2102C24.7431 14.799 25.201 15.2569 25.8552 15.3223C26.5094 15.3223 26.9674 14.799 26.9674 14.2102C26.9674 13.556 26.444 13.098 25.8552 13.098C25.201 13.098 24.7431 13.6214 24.7431 14.2102Z" fill="#EC0000"/>
<circle cx="20.0326" cy="20.0326" r="4.05608" fill="#EC0000"/>
</svg>
