<svg width="40" height="40" viewBox="0 0 40 40" fill="none" xmlns="http://www.w3.org/2000/svg">
<circle cx="20" cy="20" r="19" stroke="#EC0000" stroke-width="2"/>
<path fill-rule="evenodd" clip-rule="evenodd" d="M15.6571 29.6611C12.9705 29.6437 10.3336 28.9353 8 27.6039H9.25714C11.4565 27.5466 13.5794 26.7855 15.3143 25.4325C13.2143 25.3841 11.3773 24.0063 10.7429 22.0039H11.6571L13.0286 21.7754C10.7424 21.2984 9.08549 19.3101 9.02857 16.9754C9.67455 17.3888 10.4342 17.5887 11.2 17.5468C9.24676 16.0886 8.62061 13.4395 9.71429 11.2611C12.2001 14.3061 15.8474 16.1712 19.7714 16.4039C19.6769 16.0307 19.6384 15.6456 19.6571 15.2611C19.567 13.2108 20.7903 11.33 22.7011 10.5812C24.6119 9.83235 26.7874 10.3812 28.1143 11.9468C29.2465 11.719 30.3298 11.2935 31.3143 10.6897C30.9945 11.8617 30.2102 12.8524 29.1429 13.4325L32 12.6325C31.3854 13.6298 30.5676 14.4865 29.6 15.1468V15.7182C29.6308 19.4254 28.1717 22.9898 25.5502 25.6113C22.9287 28.2328 19.3644 29.6918 15.6571 29.6611Z" fill="#EC0000"/>
</svg>
