<svg width="62" height="68" viewBox="0 0 62 68" fill="none" xmlns="http://www.w3.org/2000/svg">
<path fill-rule="evenodd" clip-rule="evenodd" d="M51.1042 0.694444H10.6111C5.13429 0.694444 0.694444 5.13428 0.694444 10.6111V51.1042C0.694444 56.581 5.13428 61.0208 10.6111 61.0208H24.7189L30.4444 67.6321L36.1699 61.0208H51.1042C56.581 61.0208 61.0208 56.581 61.0208 51.1042V10.6111C61.0208 5.13429 56.581 0.694444 51.1042 0.694444ZM4 10.6111C4 6.95989 6.9599 4 10.6111 4H51.1042C54.7554 4 57.7153 6.9599 57.7153 10.6111V51.1042C57.7153 54.7554 54.7554 57.7153 51.1042 57.7153H10.6111C6.95989 57.7153 4 54.7554 4 51.1042V10.6111Z" fill="#EC0000"/>
</svg>
