<svg width="24" height="24" viewBox="0 0 24 24" fill="none" xmlns="http://www.w3.org/2000/svg">
<path fill-rule="evenodd" clip-rule="evenodd" d="M17.25 0V8.7075C18.6013 9.1743 19.5078 10.4466 19.5078 11.8763C19.5078 13.3059 18.6013 14.5782 17.25 15.045V23.76L9.435 19.5675L5.565 23.4375L3.4425 21.315L6.6675 18.09L5.5725 17.505H0V6.255H5.5725L17.25 0ZM3 9.255V14.505H6V9.255H3ZM14.25 18.75L7.5 15.135V8.625L14.25 5.01V18.75ZM22.0147 6.05109L19.7183 8.34742L20.779 9.40808L23.0753 7.11175L22.0147 6.05109ZM20.7738 14.3371L19.7348 15.419L22.0285 17.6216L23.0675 16.5397L20.7738 14.3371ZM21 11.13H24V12.63H21V11.13Z" fill="#EC0000"/>
</svg>
